<svg width="32" height="32" viewBox="0 0 32 32" fill="none" xmlns="http://www.w3.org/2000/svg">
<path d="M30.4329 23.7108H24.2776C23.9644 23.7108 23.7106 23.9646 23.7106 24.2778V30.4331C23.7106 30.7462 23.9644 31.0001 24.2776 31.0001H30.4329C30.746 31.0001 30.9999 30.7462 30.9999 30.4331V24.2778C30.9999 23.9646 30.746 23.7108 30.4329 23.7108Z" fill="#1C1F1D"/>
<path d="M1.80181 16.1998L14.5958 28.9938C15.0387 29.4367 15.7567 29.4367 16.1996 28.9938L28.9936 16.1998C29.4365 15.7569 29.4365 15.0389 28.9936 14.596L16.1996 1.80201C15.7567 1.35912 15.0387 1.35912 14.5958 1.80201L1.80181 14.596C1.35892 15.0389 1.35892 15.7569 1.80181 16.1998Z" fill="#1C1F1D"/>
</svg>
